<svg width="26" height="26" viewBox="0 0 26 26" fill="none" xmlns="http://www.w3.org/2000/svg">
<path d="M12.9998 23.7174C7.01659 23.7174 2.1665 18.8674 2.1665 12.8841C2.1665 6.90086 7.01659 2.05078 12.9998 2.05078C18.9831 2.05078 23.8332 6.90195 23.8332 12.8841C23.8332 18.8663 18.9831 23.7174 12.9998 23.7174ZM12.9998 7.46745C12.7125 7.46745 12.437 7.58158 12.2338 7.78475C12.0306 7.98791 11.9165 8.26346 11.9165 8.55078V13.9674C11.9165 14.2548 12.0306 14.5303 12.2338 14.7335C12.437 14.9366 12.7125 15.0508 12.9998 15.0508C13.2872 15.0508 13.5627 14.9366 13.7659 14.7335C13.969 14.5303 14.0832 14.2548 14.0832 13.9674V8.55078C14.0832 8.26346 13.969 7.98791 13.7659 7.78475C13.5627 7.58158 13.2872 7.46745 12.9998 7.46745ZM12.9998 18.3008C13.2872 18.3008 13.5627 18.1866 13.7659 17.9835C13.969 17.7803 14.0832 17.5048 14.0832 17.2174C14.0832 16.9301 13.969 16.6546 13.7659 16.4514C13.5627 16.2483 13.2872 16.1341 12.9998 16.1341C12.7125 16.1341 12.437 16.2483 12.2338 16.4514C12.0306 16.6546 11.9165 16.9301 11.9165 17.2174C11.9165 17.5048 12.0306 17.7803 12.2338 17.9835C12.437 18.1866 12.7125 18.3008 12.9998 18.3008Z" fill="#A0A0A0"/>
</svg>
