<svg width="22" height="24" viewBox="0 0 22 24" fill="none" xmlns="http://www.w3.org/2000/svg">
<path d="M19.1697 17.3792L12.1122 3.86199C11.9583 3.56481 11.7351 3.31762 11.4655 3.14564C11.1958 2.97367 10.8893 2.88306 10.5772 2.88306C10.2651 2.88306 9.95856 2.97367 9.68889 3.14564C9.41923 3.31762 9.19607 3.56481 9.04218 3.86199L1.98471 17.3792C1.82917 17.6741 1.74761 18.0087 1.7483 18.3491C1.74898 18.6896 1.8319 19.0237 1.98864 19.3178C2.14537 19.6119 2.37036 19.8554 2.64079 20.0236C2.91122 20.1919 3.21748 20.2788 3.52853 20.2758H17.6435C17.953 20.2754 18.2571 20.186 18.525 20.0163C18.793 19.8467 19.0155 19.6029 19.1701 19.3094C19.3248 19.0159 19.4061 18.6831 19.406 18.3443C19.406 18.0055 19.3244 17.6726 19.1697 17.3792Z" stroke="#FF0050" stroke-width="1.93103" stroke-linecap="round" stroke-linejoin="round"/>
<path d="M10.5859 8.68958V12.5516" stroke="#FF0050" stroke-width="1.93103" stroke-linecap="round" stroke-linejoin="round"/>
<path d="M10.5859 16.4138H10.5961" stroke="#FF0050" stroke-width="1.93103" stroke-linecap="round" stroke-linejoin="round"/>
</svg>
