<svg width="16" height="16" viewBox="0 0 16 16" fill="none" xmlns="http://www.w3.org/2000/svg">
<g clip-path="url(#clip0_17_2323)">
<path d="M14.6668 7.99998H13.0135C12.7221 7.99936 12.4386 8.09418 12.2062 8.26996C11.9739 8.44573 11.8055 8.69278 11.7268 8.97331L10.1602 14.5466C10.1501 14.5813 10.129 14.6117 10.1002 14.6333C10.0713 14.655 10.0362 14.6666 10.0002 14.6666C9.9641 14.6666 9.92901 14.655 9.90016 14.6333C9.87131 14.6117 9.85026 14.5813 9.84016 14.5466L6.16016 1.45331C6.15007 1.41869 6.12901 1.38828 6.10016 1.36665C6.07131 1.34501 6.03622 1.33331 6.00016 1.33331C5.9641 1.33331 5.92901 1.34501 5.90016 1.36665C5.87131 1.38828 5.85026 1.41869 5.84016 1.45331L4.2735 7.02665C4.19514 7.30608 4.02775 7.55232 3.79674 7.72799C3.56573 7.90365 3.28371 7.99915 2.9935 7.99998H1.3335" stroke="#FFD600" stroke-width="1.33333" stroke-linecap="round" stroke-linejoin="round"/>
</g>
<defs>
<clipPath id="clip0_17_2323">
<rect width="16" height="16" fill="white"/>
</clipPath>
</defs>
</svg>
