<svg width="20" height="20" viewBox="0 0 20 20" fill="none" xmlns="http://www.w3.org/2000/svg">
<path d="M18.1085 14.5L11.4419 2.83332C11.2965 2.57682 11.0857 2.36347 10.831 2.21504C10.5762 2.06661 10.2867 1.9884 9.99185 1.9884C9.69703 1.9884 9.40748 2.06661 9.15275 2.21504C8.89802 2.36347 8.68722 2.57682 8.54185 2.83332L1.87519 14.5C1.72825 14.7544 1.65121 15.0432 1.65186 15.3371C1.65251 15.6309 1.73083 15.9194 1.87889 16.1732C2.02695 16.427 2.23948 16.6371 2.49493 16.7823C2.75039 16.9275 3.03969 17.0026 3.33352 17H16.6669C16.9593 16.9997 17.2465 16.9225 17.4996 16.7761C17.7527 16.6297 17.9629 16.4192 18.1089 16.1659C18.255 15.9126 18.3319 15.6253 18.3318 15.3329C18.3317 15.0405 18.2547 14.7532 18.1085 14.5Z" stroke="#FFD500" stroke-width="1.66667" stroke-linecap="round" stroke-linejoin="round"/>
<path d="M10 7V10.3333" stroke="#FFD500" stroke-width="1.66667" stroke-linecap="round" stroke-linejoin="round"/>
<path d="M10 13.6666H10.0083" stroke="#FFD500" stroke-width="1.66667" stroke-linecap="round" stroke-linejoin="round"/>
</svg>
