<svg width="14" height="14" viewBox="0 0 14 14" fill="none" xmlns="http://www.w3.org/2000/svg">
<path d="M7.41624 9.74921C7.52785 9.63721 7.58366 9.49857 7.58366 9.33329V6.99996C7.58366 6.83468 7.52766 6.69624 7.41566 6.58463C7.30366 6.47301 7.16521 6.41701 7.00033 6.41663C6.83544 6.41624 6.69699 6.47224 6.58499 6.58463C6.47299 6.69701 6.41699 6.83546 6.41699 6.99996V9.33329C6.41699 9.49857 6.47299 9.63721 6.58499 9.74921C6.69699 9.86121 6.83544 9.91701 7.00033 9.91663C7.16521 9.91624 7.30385 9.86082 7.41624 9.74921ZM7.41624 5.08196C7.52785 4.97035 7.58366 4.8319 7.58366 4.66663C7.58366 4.50135 7.52766 4.3629 7.41566 4.25129C7.30366 4.13968 7.16521 4.08368 7.00033 4.08329C6.83544 4.0829 6.69699 4.1389 6.58499 4.25129C6.47299 4.36368 6.41699 4.50213 6.41699 4.66663C6.41699 4.83113 6.47299 4.96976 6.58499 5.08254C6.69699 5.19532 6.83544 5.25113 7.00033 5.24996C7.16521 5.24879 7.30385 5.19279 7.41624 5.08196ZM7.00033 12.8333C6.19338 12.8333 5.43505 12.6801 4.72533 12.3736C4.0156 12.0672 3.39824 11.6517 2.87324 11.127C2.34824 10.6024 1.93272 9.98507 1.62666 9.27496C1.3206 8.56485 1.16738 7.80651 1.16699 6.99996C1.1666 6.1934 1.31983 5.43507 1.62666 4.72496C1.93349 4.01485 2.34902 3.39749 2.87324 2.87288C3.39747 2.34826 4.01483 1.93274 4.72533 1.62629C5.43583 1.31985 6.19416 1.16663 7.00033 1.16663C7.80649 1.16663 8.56483 1.31985 9.27533 1.62629C9.98583 1.93274 10.6032 2.34826 11.1274 2.87288C11.6516 3.39749 12.0674 4.01485 12.3746 4.72496C12.6818 5.43507 12.8348 6.1934 12.8337 6.99996C12.8325 7.80651 12.6793 8.56485 12.374 9.27496C12.0687 9.98507 11.6532 10.6024 11.1274 11.127C10.6016 11.6517 9.98427 12.0674 9.27533 12.3742C8.56638 12.681 7.80805 12.8341 7.00033 12.8333Z" fill="#A0A0A0"/>
</svg>
