<svg width="16" height="16" viewBox="0 0 16 16" fill="none" xmlns="http://www.w3.org/2000/svg">
<g clip-path="url(#clip0_60_1516)">
<path d="M13.3335 1.33337H2.66683C1.93045 1.33337 1.3335 1.93033 1.3335 2.66671V5.33337C1.3335 6.06975 1.93045 6.66671 2.66683 6.66671H13.3335C14.0699 6.66671 14.6668 6.06975 14.6668 5.33337V2.66671C14.6668 1.93033 14.0699 1.33337 13.3335 1.33337Z" stroke="#A0A0A0" stroke-width="1.33333" stroke-linecap="round" stroke-linejoin="round"/>
<path d="M13.3335 9.33337H2.66683C1.93045 9.33337 1.3335 9.93033 1.3335 10.6667V13.3334C1.3335 14.0698 1.93045 14.6667 2.66683 14.6667H13.3335C14.0699 14.6667 14.6668 14.0698 14.6668 13.3334V10.6667C14.6668 9.93033 14.0699 9.33337 13.3335 9.33337Z" stroke="#A0A0A0" stroke-width="1.33333" stroke-linecap="round" stroke-linejoin="round"/>
<path d="M4 4H4.00667" stroke="#A0A0A0" stroke-width="1.33333" stroke-linecap="round" stroke-linejoin="round"/>
</g>
<defs>
<clipPath id="clip0_60_1516">
<rect width="16" height="16" fill="white"/>
</clipPath>
</defs>
</svg>
