<svg width="14" height="14" viewBox="0 0 14 14" fill="none" xmlns="http://www.w3.org/2000/svg">
<path d="M5.21373 1.31247C5.03433 1.30777 4.8558 1.33911 4.68873 1.40464C4.51431 1.47581 4.37373 1.58547 4.24423 1.71381L1.71431 4.24372C1.59006 4.36856 1.48098 4.50622 1.40806 4.68005C1.34046 4.84947 1.3081 5.03088 1.31298 5.21322V8.78672C1.31298 8.96289 1.33398 9.13789 1.40515 9.31172C1.47631 9.48555 1.58598 9.62672 1.71431 9.75622L4.24423 12.2861C4.36906 12.4104 4.50673 12.5195 4.68056 12.5918C4.8544 12.6647 5.03115 12.6875 5.21373 12.6875H8.78723C8.9634 12.6875 9.1384 12.6671 9.31223 12.5953C9.48665 12.5241 9.62723 12.4145 9.75673 12.2861L12.2866 9.75622C12.4109 9.63139 12.52 9.49372 12.5923 9.31989C12.6601 9.15052 12.6927 8.9691 12.688 8.78672V5.21322C12.6927 5.03382 12.6613 4.8553 12.5958 4.68822C12.524 4.52058 12.4188 4.36934 12.2866 4.24372L9.75673 1.71381C9.63111 1.58161 9.47987 1.47642 9.31223 1.40464C9.14516 1.33911 8.96663 1.30777 8.78723 1.31247H5.21373ZM7.00048 4.01155C7.11651 4.01155 7.22779 4.05765 7.30984 4.1397C7.39189 4.22174 7.43798 4.33302 7.43798 4.44905V7.65739C7.43798 7.77342 7.39189 7.8847 7.30984 7.96675C7.22779 8.04879 7.11651 8.09489 7.00048 8.09489C6.88445 8.09489 6.77317 8.04879 6.69112 7.96675C6.60907 7.8847 6.56298 7.77342 6.56298 7.65739V4.44905C6.56298 4.33302 6.60907 4.22174 6.69112 4.1397C6.77317 4.05765 6.88445 4.01155 7.00048 4.01155ZM7.43798 9.25922V9.55089C7.43798 9.66692 7.39189 9.7782 7.30984 9.86025C7.22779 9.94229 7.11651 9.98839 7.00048 9.98839C6.88445 9.98839 6.77317 9.94229 6.69112 9.86025C6.60907 9.7782 6.56298 9.66692 6.56298 9.55089V9.25922C6.56298 9.14319 6.60907 9.03191 6.69112 8.94986C6.77317 8.86782 6.88445 8.82172 7.00048 8.82172C7.11651 8.82172 7.22779 8.86782 7.30984 8.94986C7.39189 9.03191 7.43798 9.14319 7.43798 9.25922Z" fill="#FF0050"/>
</svg>
