<svg width="135" height="119" viewBox="0 0 135 119" fill="none" xmlns="http://www.w3.org/2000/svg">
<path d="M6.49716 119C5.29141 119 4.19529 118.698 3.20877 118.094C2.22225 117.49 1.45496 116.69 0.9069 115.694C0.358836 114.698 0.0584965 113.623 0.00588234 112.468C-0.0467319 111.313 0.253607 110.185 0.9069 109.083L61.7421 3.30555C62.3997 2.2037 63.2503 1.37731 64.2938 0.826388C65.3374 0.275463 66.405 0 67.4967 0C68.5885 0 69.6583 0.275463 70.7062 0.826388C71.7541 1.37731 72.6025 2.2037 73.2514 3.30555L134.087 109.083C134.744 110.185 135.047 111.316 134.994 112.475C134.942 113.634 134.639 114.707 134.087 115.694C133.534 116.682 132.767 117.481 131.785 118.094C130.803 118.707 129.706 119.009 128.496 119H6.49716ZM72.186 97.2691C73.4443 95.9998 74.0735 94.4286 74.0735 92.5554C74.0735 90.6823 73.4421 89.1132 72.1794 87.8483C70.9167 86.5834 69.3558 85.9487 67.4967 85.9443C65.6377 85.9399 64.0768 86.5746 62.8141 87.8483C61.5513 89.122 60.92 90.6911 60.92 92.5554C60.92 94.4197 61.5513 95.991 62.8141 97.2691C64.0768 98.5473 65.6377 99.1797 67.4967 99.1665C69.3558 99.1533 70.9188 98.5252 72.186 97.2691ZM72.186 77.4292C73.4443 76.1643 74.0735 74.5953 74.0735 72.7221V52.8888C74.0735 51.0157 73.4421 49.4466 72.1794 48.1817C70.9167 46.9168 69.3558 46.2821 67.4967 46.2777C65.6377 46.2733 64.0768 46.908 62.8141 48.1817C61.5513 49.4554 60.92 51.0245 60.92 52.8888V72.7221C60.92 74.5953 61.5513 76.1665 62.8141 77.4358C64.0768 78.7052 65.6377 79.3376 67.4967 79.3332C69.3558 79.3288 70.9188 78.6941 72.186 77.4292Z" fill="#FFD600"/>
</svg>
