<svg width="108" height="86" viewBox="0 0 108 86" fill="none" xmlns="http://www.w3.org/2000/svg">
<path d="M64.7933 5.375H86.3933C89.3801 5.375 91.7933 7.77695 91.7933 10.75C91.7933 13.723 89.3801 16.125 86.3933 16.125H67.2233C66.3458 20.4586 63.3589 24.0363 59.3933 25.7496V75.25H86.3933C89.3801 75.25 91.7933 77.652 91.7933 80.625C91.7933 83.598 89.3801 86 86.3933 86H21.5933C18.6064 86 16.1933 83.598 16.1933 80.625C16.1933 77.652 18.6064 75.25 21.5933 75.25H48.5933V25.7496C44.6276 24.0195 41.6408 20.4418 40.7633 16.125H21.5933C18.6064 16.125 16.1933 13.723 16.1933 10.75C16.1933 7.77695 18.6064 5.375 21.5933 5.375H43.1933C45.657 2.11641 49.572 0 53.9933 0C58.4145 0 62.3295 2.11641 64.7933 5.375ZM74.1758 53.75H98.6277L86.3933 32.8883L74.1758 53.75ZM86.3933 69.875C75.7789 69.875 66.9533 64.1641 65.1308 56.6223C64.692 54.7746 65.2995 52.8766 66.2614 51.2305L82.3264 23.818C83.1701 22.3734 84.7226 21.5 86.3933 21.5C88.0639 21.5 89.6164 22.3902 90.4601 23.818L106.525 51.2305C107.487 52.8766 108.095 54.7746 107.656 56.6223C105.833 64.1641 97.0076 69.875 86.3933 69.875ZM21.3908 32.8883L9.17327 53.75H33.6251L21.3908 32.8883ZM0.145145 56.6223C-0.293605 54.7746 0.313895 52.8766 1.27577 51.2305L17.3408 23.818C18.1845 22.3734 19.737 21.5 21.4076 21.5C23.0783 21.5 24.6308 22.3902 25.4745 23.818L41.5395 51.2305C42.5014 52.8766 43.1089 54.7746 42.6701 56.6223C40.8308 64.1641 32.0051 69.875 21.3908 69.875C10.7764 69.875 1.96765 64.1641 0.145145 56.6223Z" fill="#00F2EA"/>
</svg>
