<svg width="33" height="33" viewBox="0 0 33 33" fill="none" xmlns="http://www.w3.org/2000/svg">
<mask id="path-1-inside-1_227_422" fill="white">
<path d="M0 4.91713C0 2.20147 2.20147 0 4.91713 0H27.5359C30.2516 0 32.453 2.20147 32.453 4.91713V27.5359C32.453 30.2516 30.2516 32.453 27.5359 32.453H4.91713C2.20147 32.453 0 30.2516 0 27.5359V4.91713Z"/>
</mask>
<path d="M0 4.91713C0 2.20147 2.20147 0 4.91713 0H27.5359C30.2516 0 32.453 2.20147 32.453 4.91713V27.5359C32.453 30.2516 30.2516 32.453 27.5359 32.453H4.91713C2.20147 32.453 0 30.2516 0 27.5359V4.91713Z" fill="#C167C7" fill-opacity="0.3"/>
<path d="M4.91713 0V0.983425H27.5359V0V-0.983425H4.91713V0ZM32.453 4.91713H31.4696V27.5359H32.453H33.4365V4.91713H32.453ZM27.5359 32.453V31.4696H4.91713V32.453V33.4365H27.5359V32.453ZM0 27.5359H0.983425V4.91713H0H-0.983425V27.5359H0ZM4.91713 32.453V31.4696C2.7446 31.4696 0.983425 29.7084 0.983425 27.5359H0H-0.983425C-0.983425 30.7947 1.65834 33.4365 4.91713 33.4365V32.453ZM32.453 27.5359H31.4696C31.4696 29.7084 29.7084 31.4696 27.5359 31.4696V32.453V33.4365C30.7947 33.4365 33.4365 30.7947 33.4365 27.5359H32.453ZM27.5359 0V0.983425C29.7084 0.983425 31.4696 2.7446 31.4696 4.91713H32.453H33.4365C33.4365 1.65834 30.7947 -0.983425 27.5359 -0.983425V0ZM4.91713 0V-0.983425C1.65834 -0.983425 -0.983425 1.65834 -0.983425 4.91713H0H0.983425C0.983425 2.7446 2.7446 0.983425 4.91713 0.983425V0Z" fill="#C167C7" fill-opacity="0.1" mask="url(#path-1-inside-1_227_422)"/>
<path d="M21.9997 9.33313H11.9997C11.0792 9.33313 10.333 10.0793 10.333 10.9998V20.9998C10.333 21.9203 11.0792 22.6665 11.9997 22.6665H21.9997C22.9201 22.6665 23.6663 21.9203 23.6663 20.9998V10.9998C23.6663 10.0793 22.9201 9.33313 21.9997 9.33313Z" stroke="#C167C7" stroke-width="1.5" stroke-linecap="round" stroke-linejoin="round"/>
<path d="M18.6667 13.5H15.3333C14.8731 13.5 14.5 13.8731 14.5 14.3333V17.6667C14.5 18.1269 14.8731 18.5 15.3333 18.5H18.6667C19.1269 18.5 19.5 18.1269 19.5 17.6667V14.3333C19.5 13.8731 19.1269 13.5 18.6667 13.5Z" stroke="#C167C7" stroke-width="1.5" stroke-linecap="round" stroke-linejoin="round"/>
<path d="M19.5 7.66663V9.33329" stroke="#C167C7" stroke-width="1.5" stroke-linecap="round" stroke-linejoin="round"/>
<path d="M19.5 22.6667V24.3334" stroke="#C167C7" stroke-width="1.5" stroke-linecap="round" stroke-linejoin="round"/>
<path d="M8.66699 18.5H10.3337" stroke="#C167C7" stroke-width="1.5" stroke-linecap="round" stroke-linejoin="round"/>
<path d="M8.66699 13.5H10.3337" stroke="#C167C7" stroke-width="1.5" stroke-linecap="round" stroke-linejoin="round"/>
<path d="M23.667 18.5H25.3337" stroke="#C167C7" stroke-width="1.5" stroke-linecap="round" stroke-linejoin="round"/>
<path d="M23.667 13.5H25.3337" stroke="#C167C7" stroke-width="1.5" stroke-linecap="round" stroke-linejoin="round"/>
<path d="M14.5 7.66663V9.33329" stroke="#C167C7" stroke-width="1.5" stroke-linecap="round" stroke-linejoin="round"/>
<path d="M14.5 22.6667V24.3334" stroke="#C167C7" stroke-width="1.5" stroke-linecap="round" stroke-linejoin="round"/>
</svg>
