<svg width="33" height="33" viewBox="0 0 33 33" fill="none" xmlns="http://www.w3.org/2000/svg">
<mask id="path-1-inside-1_227_524" fill="white">
<path d="M0 4.91713C0 2.20147 2.20147 0 4.91713 0H27.5359C30.2516 0 32.453 2.20147 32.453 4.91713V27.5359C32.453 30.2516 30.2516 32.453 27.5359 32.453H4.91713C2.20147 32.453 0 30.2516 0 27.5359V4.91713Z"/>
</mask>
<path d="M0 4.91713C0 2.20147 2.20147 0 4.91713 0H27.5359C30.2516 0 32.453 2.20147 32.453 4.91713V27.5359C32.453 30.2516 30.2516 32.453 27.5359 32.453H4.91713C2.20147 32.453 0 30.2516 0 27.5359V4.91713Z" fill="#00F2EA" fill-opacity="0.1"/>
<path d="M4.91713 0V0.983425H27.5359V0V-0.983425H4.91713V0ZM32.453 4.91713H31.4696V27.5359H32.453H33.4365V4.91713H32.453ZM27.5359 32.453V31.4696H4.91713V32.453V33.4365H27.5359V32.453ZM0 27.5359H0.983425V4.91713H0H-0.983425V27.5359H0ZM4.91713 32.453V31.4696C2.7446 31.4696 0.983425 29.7084 0.983425 27.5359H0H-0.983425C-0.983425 30.7947 1.65834 33.4365 4.91713 33.4365V32.453ZM32.453 27.5359H31.4696C31.4696 29.7084 29.7084 31.4696 27.5359 31.4696V32.453V33.4365C30.7947 33.4365 33.4365 30.7947 33.4365 27.5359H32.453ZM27.5359 0V0.983425C29.7084 0.983425 31.4696 2.7446 31.4696 4.91713H32.453H33.4365C33.4365 1.65834 30.7947 -0.983425 27.5359 -0.983425V0ZM4.91713 0V-0.983425C1.65834 -0.983425 -0.983425 1.65834 -0.983425 4.91713H0H0.983425C0.983425 2.7446 2.7446 0.983425 4.91713 0.983425V0Z" fill="#00F2EA" fill-opacity="0.2" mask="url(#path-1-inside-1_227_524)"/>
<g clip-path="url(#clip0_227_524)">
<path d="M25.249 16.5001H7.74902" stroke="#00F2EA" stroke-width="1.75" stroke-linecap="round" stroke-linejoin="round"/>
<path d="M10.7678 10.4713L7.74902 16.5V21.75C7.74902 22.2141 7.9334 22.6592 8.26159 22.9874C8.58978 23.3156 9.03489 23.5 9.49902 23.5H23.499C23.9632 23.5 24.4083 23.3156 24.7365 22.9874C25.0647 22.6592 25.249 22.2141 25.249 21.75V16.5L22.2303 10.4713C22.0854 10.1797 21.8621 9.93432 21.5854 9.76274C21.3087 9.59116 20.9896 9.50017 20.664 9.5H12.334C12.0085 9.50017 11.6894 9.59116 11.4127 9.76274C11.136 9.93432 10.9127 10.1797 10.7678 10.4713Z" stroke="#00F2EA" stroke-width="1.75" stroke-linecap="round" stroke-linejoin="round"/>
<path d="M11.25 20.0001H11.2599" stroke="#00F2EA" stroke-width="1.75" stroke-linecap="round" stroke-linejoin="round"/>
<path d="M14.75 20.0001H14.7599" stroke="#00F2EA" stroke-width="1.75" stroke-linecap="round" stroke-linejoin="round"/>
</g>
<defs>
<clipPath id="clip0_227_524">
<rect width="21" height="21" fill="white" transform="translate(6 6)"/>
</clipPath>
</defs>
</svg>
