<svg width="14" height="14" viewBox="0 0 14 14" fill="none" xmlns="http://www.w3.org/2000/svg">
<g clip-path="url(#clip0_253_102)">
<path d="M1.18736 7.10946C1.13937 6.9802 1.13937 6.838 1.18736 6.70873C1.6547 5.57556 2.44799 4.60667 3.46665 3.92489C4.48531 3.24311 5.68347 2.87915 6.90923 2.87915C8.135 2.87915 9.33316 3.24311 10.3518 3.92489C11.3705 4.60667 12.1638 5.57556 12.6311 6.70873C12.6791 6.838 12.6791 6.9802 12.6311 7.10946C12.1638 8.24264 11.3705 9.21153 10.3518 9.89331C9.33316 10.5751 8.135 10.939 6.90923 10.939C5.68347 10.939 4.48531 10.5751 3.46665 9.89331C2.44799 9.21153 1.6547 8.24264 1.18736 7.10946Z" stroke="#00F2EA" stroke-width="1.15152" stroke-linecap="round" stroke-linejoin="round"/>
<path d="M6.90989 8.63637C7.86384 8.63637 8.63716 7.86304 8.63716 6.9091C8.63716 5.95515 7.86384 5.18182 6.90989 5.18182C5.95594 5.18182 5.18262 5.95515 5.18262 6.9091C5.18262 7.86304 5.95594 8.63637 6.90989 8.63637Z" stroke="#00F2EA" stroke-width="1.15152" stroke-linecap="round" stroke-linejoin="round"/>
</g>
<defs>
<clipPath id="clip0_253_102">
<rect width="13.8182" height="13.8182" fill="white"/>
</clipPath>
</defs>
</svg>
