<svg width="33" height="33" viewBox="0 0 33 33" fill="none" xmlns="http://www.w3.org/2000/svg">
<mask id="path-1-inside-1_227_498" fill="white">
<path d="M0 4.91713C0 2.20147 2.20147 0 4.91713 0H27.5359C30.2516 0 32.453 2.20147 32.453 4.91713V27.5359C32.453 30.2516 30.2516 32.453 27.5359 32.453H4.91713C2.20147 32.453 0 30.2516 0 27.5359V4.91713Z"/>
</mask>
<path d="M0 4.91713C0 2.20147 2.20147 0 4.91713 0H27.5359C30.2516 0 32.453 2.20147 32.453 4.91713V27.5359C32.453 30.2516 30.2516 32.453 27.5359 32.453H4.91713C2.20147 32.453 0 30.2516 0 27.5359V4.91713Z" fill="#FFD500" fill-opacity="0.1"/>
<path d="M4.91713 0V0.983425H27.5359V0V-0.983425H4.91713V0ZM32.453 4.91713H31.4696V27.5359H32.453H33.4365V4.91713H32.453ZM27.5359 32.453V31.4696H4.91713V32.453V33.4365H27.5359V32.453ZM0 27.5359H0.983425V4.91713H0H-0.983425V27.5359H0ZM4.91713 32.453V31.4696C2.7446 31.4696 0.983425 29.7084 0.983425 27.5359H0H-0.983425C-0.983425 30.7947 1.65834 33.4365 4.91713 33.4365V32.453ZM32.453 27.5359H31.4696C31.4696 29.7084 29.7084 31.4696 27.5359 31.4696V32.453V33.4365C30.7947 33.4365 33.4365 30.7947 33.4365 27.5359H32.453ZM27.5359 0V0.983425C29.7084 0.983425 31.4696 2.7446 31.4696 4.91713H32.453H33.4365C33.4365 1.65834 30.7947 -0.983425 27.5359 -0.983425V0ZM4.91713 0V-0.983425C1.65834 -0.983425 -0.983425 1.65834 -0.983425 4.91713H0H0.983425C0.983425 2.7446 2.7446 0.983425 4.91713 0.983425V0Z" fill="#FFD500" fill-opacity="0.2" mask="url(#path-1-inside-1_227_498)"/>
<path d="M11.5557 21.6763V19.3407" stroke="#FFD500" stroke-width="1.31123" stroke-linecap="round" stroke-linejoin="round"/>
<path d="M14.6699 21.6763V19.3407" stroke="#FFD500" stroke-width="1.31123" stroke-linecap="round" stroke-linejoin="round"/>
<path d="M17.7832 21.6763V19.3407" stroke="#FFD500" stroke-width="1.31123" stroke-linecap="round" stroke-linejoin="round"/>
<path d="M20.8984 21.6763V19.3407" stroke="#FFD500" stroke-width="1.31123" stroke-linecap="round" stroke-linejoin="round"/>
<path d="M13.1123 15.448V13.8909" stroke="#FFD500" stroke-width="1.31123" stroke-linecap="round" stroke-linejoin="round"/>
<path d="M19.3418 15.448V13.8909" stroke="#FFD500" stroke-width="1.31123" stroke-linecap="round" stroke-linejoin="round"/>
<path d="M16.2266 15.448V13.8909" stroke="#FFD500" stroke-width="1.31123" stroke-linecap="round" stroke-linejoin="round"/>
<path d="M8.44141 18.5622H24.0123" stroke="#FFD500" stroke-width="1.31123" stroke-linecap="round" stroke-linejoin="round"/>
<path d="M8.44141 12.3338C8.44141 11.9209 8.60546 11.5248 8.89747 11.2328C9.18948 10.9408 9.58553 10.7767 9.9985 10.7767H22.4552C22.8682 10.7767 23.2642 10.9408 23.5562 11.2328C23.8483 11.5248 24.0123 11.9209 24.0123 12.3338V13.1902C23.6898 13.2852 23.4067 13.482 23.2054 13.7513C23.004 14.0205 22.8952 14.3477 22.8952 14.6839C22.8952 15.0201 23.004 15.3472 23.2054 15.6165C23.4067 15.8857 23.6898 16.0825 24.0123 16.1775V20.1193C24.0123 20.5322 23.8483 20.9283 23.5562 21.2203C23.2642 21.5123 22.8682 21.6764 22.4552 21.6764H9.9985C9.58553 21.6764 9.18948 21.5123 8.89747 21.2203C8.60546 20.9283 8.44141 20.5322 8.44141 20.1193V16.1487C8.7639 16.0537 9.04699 15.8569 9.24835 15.5876C9.44971 15.3184 9.55853 14.9913 9.55853 14.6551C9.55853 14.3189 9.44971 13.9917 9.24835 13.7225C9.04699 13.4532 8.7639 13.2564 8.44141 13.1614V12.3338Z" stroke="#FFD500" stroke-width="1.31123" stroke-linecap="round" stroke-linejoin="round"/>
</svg>
