<svg width="38" height="38" viewBox="0 0 38 38" fill="none" xmlns="http://www.w3.org/2000/svg">
<mask id="path-1-inside-1_17_2657" fill="white">
<path d="M0 8C0 3.58172 3.58172 0 8 0H30C34.4183 0 38 3.58172 38 8V30C38 34.4183 34.4183 38 30 38H8C3.58172 38 0 34.4183 0 30V8Z"/>
</mask>
<path d="M0 8C0 3.58172 3.58172 0 8 0H30C34.4183 0 38 3.58172 38 8V30C38 34.4183 34.4183 38 30 38H8C3.58172 38 0 34.4183 0 30V8Z" fill="#00F2EA" fill-opacity="0.1"/>
<path d="M8 0V1H30V0V-1H8V0ZM38 8H37V30H38H39V8H38ZM30 38V37H8V38V39H30V38ZM0 30H1V8H0H-1V30H0ZM8 38V37C4.13401 37 1 33.866 1 30H0H-1C-1 34.9706 3.02944 39 8 39V38ZM38 30H37C37 33.866 33.866 37 30 37V38V39C34.9706 39 39 34.9706 39 30H38ZM30 0V1C33.866 1 37 4.13401 37 8H38H39C39 3.02944 34.9706 -1 30 -1V0ZM8 0V-1C3.02944 -1 -1 3.02944 -1 8H0H1C1 4.13401 4.13401 1 8 1V0Z" fill="#00F2EA" fill-opacity="0.2" mask="url(#path-1-inside-1_17_2657)"/>
<path d="M25.667 10.6666H12.3337C11.4132 10.6666 10.667 11.4128 10.667 12.3333V15.6666C10.667 16.5871 11.4132 17.3333 12.3337 17.3333H25.667C26.5875 17.3333 27.3337 16.5871 27.3337 15.6666V12.3333C27.3337 11.4128 26.5875 10.6666 25.667 10.6666Z" stroke="#00F2EA" stroke-width="1.66667" stroke-linecap="round" stroke-linejoin="round"/>
<path d="M25.667 20.6666H12.3337C11.4132 20.6666 10.667 21.4128 10.667 22.3333V25.6666C10.667 26.5871 11.4132 27.3333 12.3337 27.3333H25.667C26.5875 27.3333 27.3337 26.5871 27.3337 25.6666V22.3333C27.3337 21.4128 26.5875 20.6666 25.667 20.6666Z" stroke="#00F2EA" stroke-width="1.66667" stroke-linecap="round" stroke-linejoin="round"/>
<path d="M14 14H14.0083" stroke="#00F2EA" stroke-width="1.66667" stroke-linecap="round" stroke-linejoin="round"/>
<path d="M14 24H14.0083" stroke="#00F2EA" stroke-width="1.66667" stroke-linecap="round" stroke-linejoin="round"/>
</svg>
